<svg xmlns="http://www.w3.org/2000/svg" viewBox="0 0 1400 800">
  <g fill="none" stroke="#111111" stroke-width="2.25" stroke-linecap="round" stroke-dasharray="8 8">
    <path d="M636 602 Q606.5 220 647 250"/>
    <path d="M1163 261 Q905 133 647 250"/>
    <path d="M608 233 Q627.5 185 647 250"/>
    <path d="M1152 140 Q899.5 55 647 250"/>
    <path d="M779 668 Q748 220 647 250"/>
    <path d="M108 167 Q377.5 73 647 250"/>
    <path d="M548 261 Q597.5 218 647 250"/>
    <path d="M575 327 Q611 210 647 250"/>
    <path d="M542 316 Q594.5 202 647 250"/>
    <path d="M564 459 Q570.5 220 647 250"/>
    <path d="M350 343 Q498.5 168 647 250"/>
    <path d="M251 217 Q449 123 647 250"/>
    <path d="M317 272 Q482 180 647 250"/>
    <path d="M201 123 Q424 55 647 250"/>
    <path d="M559 305 Q603 202 647 250"/>
    <path d="M1163 365 Q905 145 647 250"/>
    <path d="M146 178 Q396.5 96 647 250"/>
    <path d="M201 200 Q424 106 647 250"/>
    <path d="M355 387 Q501 180 647 250"/>
    <path d="M383 272 Q515 168 647 250"/>
  </g>
  <g fill="#111111">
    <circle cx="636" cy="602" r="4"/>
    <circle cx="1163" cy="261" r="4"/>
    <circle cx="608" cy="233" r="4"/>
    <circle cx="1152" cy="140" r="4"/>
    <circle cx="779" cy="668" r="4"/>
    <circle cx="108" cy="167" r="4"/>
    <circle cx="548" cy="261" r="4"/>
    <circle cx="575" cy="327" r="4"/>
    <circle cx="542" cy="316" r="4"/>
    <circle cx="564" cy="459" r="4"/>
    <circle cx="350" cy="343" r="4"/>
    <circle cx="251" cy="217" r="4"/>
    <circle cx="317" cy="272" r="4"/>
    <circle cx="201" cy="123" r="4"/>
    <circle cx="559" cy="305" r="4"/>
    <circle cx="1163" cy="365" r="4"/>
    <circle cx="146" cy="178" r="4"/>
    <circle cx="201" cy="200" r="4"/>
    <circle cx="355" cy="387" r="4"/>
    <circle cx="383" cy="272" r="4"/>
  </g>
  <circle cx="647" cy="250" r="11" fill="#FFFDFB" stroke="#A51C30" stroke-width="2.5"/>
  <text x="647" y="254" text-anchor="middle" font-family="Arial,sans-serif" font-size="11" font-weight="700" fill="#A51C30">R</text>
</svg>
